<svg xmlns="http://www.w3.org/2000/svg" width="64" height="64" viewBox="0 0 64 64" fill="none">
  <path fill-rule="evenodd" clip-rule="evenodd" d="M4.41365 63.3621C1.97606 63.3621 0 61.4056 0 58.9922V4.36988C0 1.95646 1.97606 0 4.41365 0H58.8217C61.2593 0 63.2354 1.95646 63.2354 4.36988V58.9922C63.2354 61.4056 61.2593 63.3621 58.8217 63.3621H4.41365ZM55.9315 2.91325H58.8217C59.6342 2.91325 60.2929 3.5654 60.2929 4.36988V58.9922C60.2929 59.7967 59.6342 60.4488 58.8217 60.4488H16.2959V37.4902H43.5469V28.7504H16.2959V16.9175H43.5469V8.17774H7.46861V60.4488H4.41365C3.60112 60.4488 2.94244 59.7967 2.94244 58.9922V4.36988C2.94244 3.5654 3.60112 2.91325 4.41365 2.91325H47.1042V49.0859H18.9452V57.8256L55.9315 57.8256V2.91325Z" fill="#4B372C"/>
</svg>